<mxfile modified="2021-01-01T11:48:20.430Z" host="app.diagrams.net" agent="5.0 (Windows NT 6.1; Win64; x64) AppleWebKit/537.36 (KHTML, like Gecko) Chrome/87.0.4280.88 Safari/537.36" etag="m0pvql7yWs4WLP8oYMKr" version="14.1.6" type="github">
  <diagram id="Ht1M8jgEwFfnCIfOTk4-" name="Page-1">
    <mxGraphModel dx="1304" dy="529" grid="1" gridSize="10" guides="1" tooltips="1" connect="1" arrows="1" fold="1" page="1" pageScale="1" pageWidth="827" pageHeight="1169" math="0" shadow="0">
      <root>
        <mxCell id="0" />
        <mxCell id="1" parent="0" />
        <mxCell id="-QjtrjUzRDEMRZ5MF8oH-47" value="Aws Design for Informatica Integration" style="text;html=1;resizable=0;points=[];autosize=1;align=left;verticalAlign=top;spacingTop=-4;fontSize=30;fontStyle=1" parent="1" vertex="1">
          <mxGeometry x="12" y="65.5" width="570" height="40" as="geometry" />
        </mxCell>
        <mxCell id="-QjtrjUzRDEMRZ5MF8oH-48" value="Subtitle text&lt;br style=&quot;font-size: 16px&quot;&gt;" style="text;html=1;resizable=0;points=[];autosize=1;align=left;verticalAlign=top;spacingTop=-4;fontSize=16" parent="1" vertex="1">
          <mxGeometry x="12" y="115.5" width="100" height="20" as="geometry" />
        </mxCell>
        <mxCell id="SCVMTBWpLvtzJIhz15lM-1" value="" style="line;strokeWidth=2;html=1;fontSize=14;" parent="1" vertex="1">
          <mxGeometry x="8" y="140.5" width="1060" height="10" as="geometry" />
        </mxCell>
        <mxCell id="CJ5hnUwb0rQNpAMotVJO-3" value="&lt;font style=&quot;font-size: 18px&quot;&gt;&lt;b&gt;mpl-im-app&lt;/b&gt;&lt;/font&gt;" style="text;html=1;resizable=0;autosize=1;align=center;verticalAlign=middle;points=[];fillColor=none;strokeColor=none;rounded=0;" parent="1" vertex="1">
          <mxGeometry x="466" y="450" width="110" height="20" as="geometry" />
        </mxCell>
        <mxCell id="CJ5hnUwb0rQNpAMotVJO-26" value="" style="points=[[0,0],[0.25,0],[0.5,0],[0.75,0],[1,0],[1,0.25],[1,0.5],[1,0.75],[1,1],[0.75,1],[0.5,1],[0.25,1],[0,1],[0,0.75],[0,0.5],[0,0.25]];outlineConnect=0;gradientColor=none;html=1;whiteSpace=wrap;fontSize=12;fontStyle=0;shape=mxgraph.aws4.group;grIcon=mxgraph.aws4.group_aws_cloud_alt;strokeColor=#232F3E;fillColor=none;verticalAlign=top;align=left;spacingLeft=30;fontColor=#232F3E;dashed=0;" parent="1" vertex="1">
          <mxGeometry x="456" y="540" width="676" height="503" as="geometry" />
        </mxCell>
        <mxCell id="CJ5hnUwb0rQNpAMotVJO-27" value="&lt;b&gt;sydney&lt;/b&gt;" style="points=[[0,0],[0.25,0],[0.5,0],[0.75,0],[1,0],[1,0.25],[1,0.5],[1,0.75],[1,1],[0.75,1],[0.5,1],[0.25,1],[0,1],[0,0.75],[0,0.5],[0,0.25]];outlineConnect=0;gradientColor=none;html=1;whiteSpace=wrap;fontSize=12;fontStyle=0;shape=mxgraph.aws4.group;grIcon=mxgraph.aws4.group_region;strokeColor=#147EBA;fillColor=none;verticalAlign=top;align=left;spacingLeft=30;fontColor=#147EBA;dashed=1;" parent="1" vertex="1">
          <mxGeometry x="476" y="580" width="640" height="440" as="geometry" />
        </mxCell>
        <mxCell id="CJ5hnUwb0rQNpAMotVJO-28" value="&lt;b&gt;vpc-im-app&lt;/b&gt;" style="points=[[0,0],[0.25,0],[0.5,0],[0.75,0],[1,0],[1,0.25],[1,0.5],[1,0.75],[1,1],[0.75,1],[0.5,1],[0.25,1],[0,1],[0,0.75],[0,0.5],[0,0.25]];outlineConnect=0;gradientColor=none;html=1;whiteSpace=wrap;fontSize=12;fontStyle=0;shape=mxgraph.aws4.group;grIcon=mxgraph.aws4.group_vpc;strokeColor=#248814;fillColor=none;verticalAlign=top;align=left;spacingLeft=30;fontColor=#AAB7B8;dashed=0;" parent="1" vertex="1">
          <mxGeometry x="496" y="620" width="590" height="370" as="geometry" />
        </mxCell>
        <mxCell id="CJ5hnUwb0rQNpAMotVJO-29" value="" style="rounded=1;arcSize=10;dashed=1;fillColor=none;gradientColor=none;dashPattern=1 1;strokeWidth=2;strokeColor=#FF8000;" parent="1" vertex="1">
          <mxGeometry x="526" y="680" width="220" height="260" as="geometry" />
        </mxCell>
        <mxCell id="CJ5hnUwb0rQNpAMotVJO-30" value="" style="rounded=1;arcSize=10;dashed=1;fillColor=none;gradientColor=none;dashPattern=1 1;strokeWidth=2;strokeColor=#FF8000;" parent="1" vertex="1">
          <mxGeometry x="826" y="680" width="210" height="260" as="geometry" />
        </mxCell>
        <mxCell id="CJ5hnUwb0rQNpAMotVJO-31" value="&lt;b&gt;ap-southeast-2a&lt;/b&gt;" style="text;html=1;resizable=0;autosize=1;align=center;verticalAlign=middle;points=[];fillColor=none;strokeColor=none;rounded=0;" parent="1" vertex="1">
          <mxGeometry x="521" y="660" width="110" height="20" as="geometry" />
        </mxCell>
        <mxCell id="CJ5hnUwb0rQNpAMotVJO-32" value="&lt;b&gt;ap-southeast-2b&lt;/b&gt;" style="text;html=1;resizable=0;autosize=1;align=center;verticalAlign=middle;points=[];fillColor=none;strokeColor=none;rounded=0;" parent="1" vertex="1">
          <mxGeometry x="922" y="660" width="110" height="20" as="geometry" />
        </mxCell>
        <mxCell id="CJ5hnUwb0rQNpAMotVJO-35" value="" style="rounded=1;arcSize=10;dashed=0;fillColor=none;gradientColor=none;strokeWidth=2;" parent="1" vertex="1">
          <mxGeometry x="846" y="720" width="170" height="180" as="geometry" />
        </mxCell>
        <mxCell id="CJ5hnUwb0rQNpAMotVJO-36" value="" style="dashed=0;html=1;shape=mxgraph.aws3.permissions;fillColor=#D9A741;gradientColor=none;dashed=0;strokeColor=#FF8000;" parent="1" vertex="1">
          <mxGeometry x="866" y="691.5" width="30" height="35" as="geometry" />
        </mxCell>
        <mxCell id="CJ5hnUwb0rQNpAMotVJO-37" value="" style="rounded=1;arcSize=10;dashed=0;fillColor=none;gradientColor=none;strokeWidth=2;" parent="1" vertex="1">
          <mxGeometry x="546" y="720.75" width="180" height="178.5" as="geometry" />
        </mxCell>
        <mxCell id="CJ5hnUwb0rQNpAMotVJO-38" value="" style="dashed=0;html=1;shape=mxgraph.aws3.permissions;fillColor=#D9A741;gradientColor=none;dashed=0;strokeColor=#FF8000;" parent="1" vertex="1">
          <mxGeometry x="556" y="691.5" width="30" height="35" as="geometry" />
        </mxCell>
        <mxCell id="CJ5hnUwb0rQNpAMotVJO-42" style="edgeStyle=orthogonalEdgeStyle;rounded=0;orthogonalLoop=1;jettySize=auto;html=1;" parent="1" edge="1">
          <mxGeometry relative="1" as="geometry">
            <mxPoint x="815" y="606" as="sourcePoint" />
            <mxPoint x="931" y="760" as="targetPoint" />
          </mxGeometry>
        </mxCell>
        <mxCell id="CJ5hnUwb0rQNpAMotVJO-43" style="edgeStyle=orthogonalEdgeStyle;rounded=0;orthogonalLoop=1;jettySize=auto;html=1;" parent="1" edge="1">
          <mxGeometry relative="1" as="geometry">
            <mxPoint x="746" y="606" as="sourcePoint" />
            <mxPoint x="620" y="760" as="targetPoint" />
          </mxGeometry>
        </mxCell>
        <mxCell id="CJ5hnUwb0rQNpAMotVJO-46" value="&lt;b&gt;Subnet 1&lt;/b&gt;" style="text;html=1;resizable=0;autosize=1;align=center;verticalAlign=middle;points=[];fillColor=none;strokeColor=none;rounded=0;" parent="1" vertex="1">
          <mxGeometry x="639" y="699" width="70" height="20" as="geometry" />
        </mxCell>
        <mxCell id="CJ5hnUwb0rQNpAMotVJO-47" value="&lt;b&gt;Subnet 2&lt;/b&gt;" style="text;html=1;resizable=0;autosize=1;align=center;verticalAlign=middle;points=[];fillColor=none;strokeColor=none;rounded=0;" parent="1" vertex="1">
          <mxGeometry x="951" y="699" width="70" height="20" as="geometry" />
        </mxCell>
        <mxCell id="77U4ROCLu0GC8vf01r3D-3" value="" style="outlineConnect=0;dashed=0;verticalLabelPosition=bottom;verticalAlign=top;align=center;html=1;shape=mxgraph.aws3.auto_scaling;fillColor=#F58534;gradientColor=none;" parent="1" vertex="1">
          <mxGeometry x="757" y="685.5" width="47" height="44.5" as="geometry" />
        </mxCell>
        <mxCell id="77U4ROCLu0GC8vf01r3D-5" value="Aws" style="ellipse;shape=cloud;whiteSpace=wrap;html=1;strokeColor=#FF8000;" parent="1" vertex="1">
          <mxGeometry x="440" y="520" width="70" height="40" as="geometry" />
        </mxCell>
        <mxCell id="77U4ROCLu0GC8vf01r3D-6" value="vpc" style="ellipse;shape=cloud;whiteSpace=wrap;html=1;strokeColor=#FF8000;" parent="1" vertex="1">
          <mxGeometry x="478" y="604" width="48" height="38" as="geometry" />
        </mxCell>
        <mxCell id="77U4ROCLu0GC8vf01r3D-7" value="" style="rounded=1;arcSize=10;dashed=0;fillColor=none;gradientColor=none;strokeWidth=2;" parent="1" vertex="1">
          <mxGeometry x="1350" y="540" width="770" height="500" as="geometry" />
        </mxCell>
        <mxCell id="77U4ROCLu0GC8vf01r3D-9" value="Aws" style="ellipse;shape=cloud;whiteSpace=wrap;html=1;strokeColor=#FF8000;" parent="1" vertex="1">
          <mxGeometry x="1360" y="510" width="90" height="60" as="geometry" />
        </mxCell>
        <mxCell id="77U4ROCLu0GC8vf01r3D-10" value="&lt;b&gt;Sydney&lt;/b&gt;" style="points=[[0,0],[0.25,0],[0.5,0],[0.75,0],[1,0],[1,0.25],[1,0.5],[1,0.75],[1,1],[0.75,1],[0.5,1],[0.25,1],[0,1],[0,0.75],[0,0.5],[0,0.25]];outlineConnect=0;gradientColor=none;html=1;whiteSpace=wrap;fontSize=12;fontStyle=0;shape=mxgraph.aws4.group;grIcon=mxgraph.aws4.group_region;strokeColor=#147EBA;fillColor=none;verticalAlign=top;align=left;spacingLeft=30;fontColor=#147EBA;dashed=1;" parent="1" vertex="1">
          <mxGeometry x="1380" y="580" width="710" height="420" as="geometry" />
        </mxCell>
        <mxCell id="77U4ROCLu0GC8vf01r3D-11" value="" style="rounded=1;arcSize=10;dashed=0;fillColor=none;gradientColor=none;strokeWidth=2;" parent="1" vertex="1">
          <mxGeometry x="1395" y="620" width="680" height="360" as="geometry" />
        </mxCell>
        <mxCell id="77U4ROCLu0GC8vf01r3D-12" value="" style="dashed=0;html=1;shape=mxgraph.aws3.virtual_private_cloud;fillColor=#F58536;gradientColor=none;dashed=0;strokeColor=#FF8000;" parent="1" vertex="1">
          <mxGeometry x="1448" y="602" width="52" height="40" as="geometry" />
        </mxCell>
        <mxCell id="77U4ROCLu0GC8vf01r3D-13" value="" style="rounded=1;arcSize=10;dashed=1;fillColor=none;gradientColor=none;dashPattern=1 1;strokeWidth=2;strokeColor=#FF8000;" parent="1" vertex="1">
          <mxGeometry x="1420" y="670" width="260" height="270" as="geometry" />
        </mxCell>
        <mxCell id="77U4ROCLu0GC8vf01r3D-14" value="" style="rounded=1;arcSize=10;dashed=1;fillColor=none;gradientColor=none;dashPattern=1 1;strokeWidth=2;strokeColor=#FF8000;" parent="1" vertex="1">
          <mxGeometry x="1740" y="670" width="290" height="270" as="geometry" />
        </mxCell>
        <mxCell id="77U4ROCLu0GC8vf01r3D-15" value="" style="rounded=1;arcSize=10;dashed=0;fillColor=none;gradientColor=none;strokeWidth=2;" parent="1" vertex="1">
          <mxGeometry x="1440" y="699" width="220" height="211" as="geometry" />
        </mxCell>
        <mxCell id="77U4ROCLu0GC8vf01r3D-16" value="" style="dashed=0;html=1;shape=mxgraph.aws3.permissions;fillColor=#D9A741;gradientColor=none;dashed=0;strokeColor=#FF8000;" parent="1" vertex="1">
          <mxGeometry x="1459" y="681.5" width="30" height="35" as="geometry" />
        </mxCell>
        <mxCell id="77U4ROCLu0GC8vf01r3D-17" value="" style="rounded=1;arcSize=10;dashed=0;fillColor=none;gradientColor=none;strokeWidth=2;" parent="1" vertex="1">
          <mxGeometry x="1760" y="701.5" width="240" height="208.5" as="geometry" />
        </mxCell>
        <mxCell id="77U4ROCLu0GC8vf01r3D-18" value="" style="dashed=0;html=1;shape=mxgraph.aws3.permissions;fillColor=#D9A741;gradientColor=none;dashed=0;strokeColor=#FF8000;" parent="1" vertex="1">
          <mxGeometry x="1780" y="681.5" width="30" height="35" as="geometry" />
        </mxCell>
        <mxCell id="77U4ROCLu0GC8vf01r3D-19" value="" style="outlineConnect=0;dashed=0;verticalLabelPosition=bottom;verticalAlign=top;align=center;html=1;shape=mxgraph.aws3.rds_db_instance;fillColor=#2E73B8;gradientColor=none;strokeColor=#FF8000;" parent="1" vertex="1">
          <mxGeometry x="1510" y="758.5" width="49.5" height="66" as="geometry" />
        </mxCell>
        <mxCell id="77U4ROCLu0GC8vf01r3D-21" value="" style="outlineConnect=0;dashed=0;verticalLabelPosition=bottom;verticalAlign=top;align=center;html=1;shape=mxgraph.aws3.vpc_peering;fillColor=#F58534;gradientColor=none;strokeColor=#FF8000;" parent="1" vertex="1">
          <mxGeometry x="1060" y="760" width="50" height="50" as="geometry" />
        </mxCell>
        <mxCell id="77U4ROCLu0GC8vf01r3D-22" value="" style="outlineConnect=0;dashed=0;verticalLabelPosition=bottom;verticalAlign=top;align=center;html=1;shape=mxgraph.aws3.vpc_peering;fillColor=#F58534;gradientColor=none;strokeColor=#FF8000;" parent="1" vertex="1">
          <mxGeometry x="1370" y="760" width="50" height="50" as="geometry" />
        </mxCell>
        <mxCell id="77U4ROCLu0GC8vf01r3D-23" value="&lt;font style=&quot;font-size: 18px&quot;&gt;&lt;b&gt;mpl-im-data&lt;/b&gt;&lt;/font&gt;" style="text;html=1;resizable=0;autosize=1;align=center;verticalAlign=middle;points=[];fillColor=none;strokeColor=none;rounded=0;" parent="1" vertex="1">
          <mxGeometry x="1375" y="450" width="120" height="20" as="geometry" />
        </mxCell>
        <mxCell id="77U4ROCLu0GC8vf01r3D-25" value="&lt;b&gt;vpc-im-data&lt;/b&gt;" style="text;html=1;resizable=0;autosize=1;align=center;verticalAlign=middle;points=[];fillColor=none;strokeColor=none;rounded=0;" parent="1" vertex="1">
          <mxGeometry x="1499" y="602" width="80" height="20" as="geometry" />
        </mxCell>
        <mxCell id="77U4ROCLu0GC8vf01r3D-26" value="&lt;b&gt;ap-south-east-2a&lt;/b&gt;" style="text;html=1;resizable=0;autosize=1;align=center;verticalAlign=middle;points=[];fillColor=none;strokeColor=none;rounded=0;" parent="1" vertex="1">
          <mxGeometry x="1550" y="650" width="110" height="20" as="geometry" />
        </mxCell>
        <mxCell id="77U4ROCLu0GC8vf01r3D-27" value="&lt;b&gt;ap-south-east-2b&lt;/b&gt;" style="text;html=1;resizable=0;autosize=1;align=center;verticalAlign=middle;points=[];fillColor=none;strokeColor=none;rounded=0;" parent="1" vertex="1">
          <mxGeometry x="1900" y="642" width="110" height="20" as="geometry" />
        </mxCell>
        <mxCell id="77U4ROCLu0GC8vf01r3D-28" value="" style="rounded=1;arcSize=10;dashed=1;fillColor=none;gradientColor=none;dashPattern=1 1;strokeWidth=2;" parent="1" vertex="1">
          <mxGeometry x="1460" y="734.5" width="510" height="140" as="geometry" />
        </mxCell>
        <mxCell id="77U4ROCLu0GC8vf01r3D-29" value="&lt;b&gt;subnet 1&lt;/b&gt;" style="text;html=1;resizable=0;autosize=1;align=center;verticalAlign=middle;points=[];fillColor=none;strokeColor=none;rounded=0;" parent="1" vertex="1">
          <mxGeometry x="1490" y="680" width="60" height="20" as="geometry" />
        </mxCell>
        <mxCell id="77U4ROCLu0GC8vf01r3D-30" value="&lt;b&gt;subnet 2&lt;/b&gt;" style="text;html=1;resizable=0;autosize=1;align=center;verticalAlign=middle;points=[];fillColor=none;strokeColor=none;rounded=0;" parent="1" vertex="1">
          <mxGeometry x="1820" y="679" width="60" height="20" as="geometry" />
        </mxCell>
        <mxCell id="77U4ROCLu0GC8vf01r3D-32" value="" style="endArrow=none;dashed=1;html=1;dashPattern=1 3;strokeWidth=2;exitX=1;exitY=0.5;exitDx=0;exitDy=0;exitPerimeter=0;entryX=0;entryY=0.5;entryDx=0;entryDy=0;entryPerimeter=0;" parent="1" source="77U4ROCLu0GC8vf01r3D-21" target="77U4ROCLu0GC8vf01r3D-22" edge="1">
          <mxGeometry width="50" height="50" relative="1" as="geometry">
            <mxPoint x="1200" y="810" as="sourcePoint" />
            <mxPoint x="1250" y="760" as="targetPoint" />
          </mxGeometry>
        </mxCell>
        <mxCell id="77U4ROCLu0GC8vf01r3D-37" value="&lt;b&gt;Replication&lt;/b&gt;" style="text;html=1;resizable=0;autosize=1;align=center;verticalAlign=middle;points=[];fillColor=none;strokeColor=none;rounded=0;" parent="1" vertex="1">
          <mxGeometry x="1675" y="770" width="80" height="20" as="geometry" />
        </mxCell>
        <mxCell id="Nz-ZUaqAvJmxbdLWk7XK-1" value="" style="outlineConnect=0;dashed=0;verticalLabelPosition=bottom;verticalAlign=top;align=center;html=1;shape=mxgraph.aws3.management_console;fillColor=#D2D3D3;gradientColor=none;" parent="1" vertex="1">
          <mxGeometry x="749" y="400" width="63" height="63" as="geometry" />
        </mxCell>
        <mxCell id="Nz-ZUaqAvJmxbdLWk7XK-2" value="" style="endArrow=classic;html=1;exitX=0.5;exitY=1;exitDx=0;exitDy=0;exitPerimeter=0;" parent="1" source="Nz-ZUaqAvJmxbdLWk7XK-1" edge="1">
          <mxGeometry width="50" height="50" relative="1" as="geometry">
            <mxPoint x="930" y="470" as="sourcePoint" />
            <mxPoint x="780.5" y="570" as="targetPoint" />
          </mxGeometry>
        </mxCell>
        <mxCell id="Nz-ZUaqAvJmxbdLWk7XK-3" value="" style="endArrow=none;html=1;entryX=0.467;entryY=1.009;entryDx=0;entryDy=0;entryPerimeter=0;" parent="1" edge="1">
          <mxGeometry width="50" height="50" relative="1" as="geometry">
            <mxPoint x="618" y="1160" as="sourcePoint" />
            <mxPoint x="618.4159999999997" y="808.432" as="targetPoint" />
          </mxGeometry>
        </mxCell>
        <mxCell id="Nz-ZUaqAvJmxbdLWk7XK-4" value="" style="endArrow=none;html=1;" parent="1" edge="1">
          <mxGeometry width="50" height="50" relative="1" as="geometry">
            <mxPoint x="620" y="1160" as="sourcePoint" />
            <mxPoint x="1540" y="1160" as="targetPoint" />
            <Array as="points">
              <mxPoint x="1060" y="1160" />
            </Array>
          </mxGeometry>
        </mxCell>
        <mxCell id="Nz-ZUaqAvJmxbdLWk7XK-5" value="" style="endArrow=none;html=1;entryX=0.467;entryY=1.009;entryDx=0;entryDy=0;entryPerimeter=0;" parent="1" edge="1">
          <mxGeometry width="50" height="50" relative="1" as="geometry">
            <mxPoint x="1534" y="1160" as="sourcePoint" />
            <mxPoint x="1534.4560000000001" y="824.5019999999998" as="targetPoint" />
          </mxGeometry>
        </mxCell>
        <mxCell id="Nz-ZUaqAvJmxbdLWk7XK-6" value="&lt;b&gt;&lt;font style=&quot;font-size: 14px&quot;&gt;S3&lt;/font&gt;&lt;/b&gt;" style="text;html=1;resizable=0;autosize=1;align=center;verticalAlign=middle;points=[];fillColor=none;strokeColor=none;rounded=0;" parent="1" vertex="1">
          <mxGeometry x="1736.5" y="958" width="30" height="20" as="geometry" />
        </mxCell>
        <mxCell id="4XUZIhPozvIjzRViEWlJ-1" value="" style="outlineConnect=0;dashed=0;verticalLabelPosition=bottom;verticalAlign=top;align=center;html=1;shape=mxgraph.aws3.s3;fillColor=#E05243;gradientColor=none;" parent="1" vertex="1">
          <mxGeometry x="758.5" y="922" width="56.5" height="68" as="geometry" />
        </mxCell>
        <mxCell id="4XUZIhPozvIjzRViEWlJ-2" value="" style="endArrow=none;html=1;entryX=0.467;entryY=1.009;entryDx=0;entryDy=0;entryPerimeter=0;" parent="1" edge="1">
          <mxGeometry width="50" height="50" relative="1" as="geometry">
            <mxPoint x="930.1700000000001" y="1161.5700000000002" as="sourcePoint" />
            <mxPoint x="930.5859999999998" y="810.0020000000001" as="targetPoint" />
          </mxGeometry>
        </mxCell>
        <mxCell id="hrX901Dkvn1BJReQa7dA-1" value="" style="outlineConnect=0;dashed=0;verticalLabelPosition=bottom;verticalAlign=top;align=center;html=1;shape=mxgraph.aws3.application_load_balancer;fillColor=#F58536;gradientColor=none;" vertex="1" parent="1">
          <mxGeometry x="746" y="570" width="69" height="72" as="geometry" />
        </mxCell>
        <mxCell id="hrX901Dkvn1BJReQa7dA-2" value="" style="outlineConnect=0;fontColor=#232F3E;gradientColor=none;fillColor=#D86613;strokeColor=none;dashed=0;verticalLabelPosition=bottom;verticalAlign=top;align=center;html=1;fontSize=12;fontStyle=0;aspect=fixed;pointerEvents=1;shape=mxgraph.aws4.r5_instance;" vertex="1" parent="1">
          <mxGeometry x="907" y="758.5" width="48" height="48" as="geometry" />
        </mxCell>
        <mxCell id="hrX901Dkvn1BJReQa7dA-3" value="" style="outlineConnect=0;fontColor=#232F3E;gradientColor=none;fillColor=#D86613;strokeColor=none;dashed=0;verticalLabelPosition=bottom;verticalAlign=top;align=center;html=1;fontSize=12;fontStyle=0;aspect=fixed;pointerEvents=1;shape=mxgraph.aws4.r5_instance;" vertex="1" parent="1">
          <mxGeometry x="596" y="756" width="48" height="48" as="geometry" />
        </mxCell>
        <mxCell id="hrX901Dkvn1BJReQa7dA-4" value="&lt;b&gt;&lt;font style=&quot;font-size: 14px&quot;&gt;Power Center Instance&lt;/font&gt;&lt;/b&gt;" style="text;html=1;resizable=0;autosize=1;align=center;verticalAlign=middle;points=[];fillColor=none;strokeColor=none;rounded=0;" vertex="1" parent="1">
          <mxGeometry x="556" y="812.25" width="170" height="20" as="geometry" />
        </mxCell>
        <mxCell id="hrX901Dkvn1BJReQa7dA-5" value="&lt;b&gt;&lt;font style=&quot;font-size: 14px&quot;&gt;Power Center Instance&lt;/font&gt;&lt;/b&gt;" style="text;html=1;resizable=0;autosize=1;align=center;verticalAlign=middle;points=[];fillColor=none;strokeColor=none;rounded=0;" vertex="1" parent="1">
          <mxGeometry x="851" y="812.25" width="170" height="20" as="geometry" />
        </mxCell>
        <mxCell id="hrX901Dkvn1BJReQa7dA-6" value="" style="outlineConnect=0;dashed=0;verticalLabelPosition=bottom;verticalAlign=top;align=center;html=1;shape=mxgraph.aws3.s3;fillColor=#E05243;gradientColor=none;" vertex="1" parent="1">
          <mxGeometry x="1686.75" y="910" width="56.5" height="68" as="geometry" />
        </mxCell>
        <mxCell id="hrX901Dkvn1BJReQa7dA-7" value="" style="endArrow=none;html=1;" edge="1" parent="1" source="hrX901Dkvn1BJReQa7dA-3">
          <mxGeometry width="50" height="50" relative="1" as="geometry">
            <mxPoint x="1190" y="790" as="sourcePoint" />
            <mxPoint x="770" y="781" as="targetPoint" />
          </mxGeometry>
        </mxCell>
        <mxCell id="hrX901Dkvn1BJReQa7dA-8" value="" style="endArrow=none;html=1;" edge="1" parent="1">
          <mxGeometry width="50" height="50" relative="1" as="geometry">
            <mxPoint x="790" y="781.9100000000001" as="sourcePoint" />
            <mxPoint x="916" y="782.75" as="targetPoint" />
          </mxGeometry>
        </mxCell>
        <mxCell id="hrX901Dkvn1BJReQa7dA-9" value="" style="endArrow=classic;html=1;entryX=0.464;entryY=0.811;entryDx=0;entryDy=0;entryPerimeter=0;" edge="1" parent="1" target="CJ5hnUwb0rQNpAMotVJO-28">
          <mxGeometry width="50" height="50" relative="1" as="geometry">
            <mxPoint x="770" y="780" as="sourcePoint" />
            <mxPoint x="1040" y="740" as="targetPoint" />
          </mxGeometry>
        </mxCell>
        <mxCell id="hrX901Dkvn1BJReQa7dA-10" value="" style="endArrow=classic;html=1;entryX=0.464;entryY=0.811;entryDx=0;entryDy=0;entryPerimeter=0;" edge="1" parent="1">
          <mxGeometry width="50" height="50" relative="1" as="geometry">
            <mxPoint x="790.82" y="781.93" as="sourcePoint" />
            <mxPoint x="790.58" y="922.0000000000001" as="targetPoint" />
          </mxGeometry>
        </mxCell>
        <mxCell id="hrX901Dkvn1BJReQa7dA-11" value="" style="endArrow=none;html=1;" edge="1" parent="1">
          <mxGeometry width="50" height="50" relative="1" as="geometry">
            <mxPoint x="1560.75" y="812.25" as="sourcePoint" />
            <mxPoint x="1710" y="813" as="targetPoint" />
          </mxGeometry>
        </mxCell>
        <mxCell id="hrX901Dkvn1BJReQa7dA-12" value="" style="endArrow=classic;html=1;" edge="1" parent="1">
          <mxGeometry width="50" height="50" relative="1" as="geometry">
            <mxPoint x="1710.24" y="812.25" as="sourcePoint" />
            <mxPoint x="1710" y="910" as="targetPoint" />
          </mxGeometry>
        </mxCell>
        <mxCell id="hrX901Dkvn1BJReQa7dA-13" value="&lt;b&gt;&lt;font style=&quot;font-size: 14px&quot;&gt;File Storage&lt;/font&gt;&lt;/b&gt;" style="text;html=1;resizable=0;autosize=1;align=center;verticalAlign=middle;points=[];fillColor=none;strokeColor=none;rounded=0;" vertex="1" parent="1">
          <mxGeometry x="1655" y="840" width="100" height="20" as="geometry" />
        </mxCell>
        <mxCell id="hrX901Dkvn1BJReQa7dA-15" value="&lt;b&gt;&lt;font style=&quot;font-size: 14px&quot;&gt;Primary DB&lt;/font&gt;&lt;/b&gt;" style="text;html=1;resizable=0;autosize=1;align=center;verticalAlign=middle;points=[];fillColor=none;strokeColor=none;rounded=0;" vertex="1" parent="1">
          <mxGeometry x="1475" y="832.25" width="90" height="20" as="geometry" />
        </mxCell>
        <mxCell id="hrX901Dkvn1BJReQa7dA-16" value="&lt;b&gt;&lt;font style=&quot;font-size: 14px&quot;&gt;Stand By DB&lt;/font&gt;&lt;/b&gt;" style="text;html=1;resizable=0;autosize=1;align=center;verticalAlign=middle;points=[];fillColor=none;strokeColor=none;rounded=0;" vertex="1" parent="1">
          <mxGeometry x="1850" y="832.25" width="100" height="20" as="geometry" />
        </mxCell>
        <mxCell id="hrX901Dkvn1BJReQa7dA-17" value="&lt;b&gt;&lt;font style=&quot;font-size: 14px&quot;&gt;VPC Peering&lt;/font&gt;&lt;/b&gt;" style="text;html=1;resizable=0;autosize=1;align=center;verticalAlign=middle;points=[];fillColor=none;strokeColor=none;rounded=0;" vertex="1" parent="1">
          <mxGeometry x="1180" y="758.5" width="100" height="20" as="geometry" />
        </mxCell>
        <mxCell id="hrX901Dkvn1BJReQa7dA-18" value="&lt;b&gt;&lt;font style=&quot;font-size: 14px&quot;&gt;S3&lt;/font&gt;&lt;/b&gt;" style="text;html=1;resizable=0;autosize=1;align=center;verticalAlign=middle;points=[];fillColor=none;strokeColor=none;rounded=0;" vertex="1" parent="1">
          <mxGeometry x="826" y="960" width="30" height="20" as="geometry" />
        </mxCell>
        <mxCell id="hrX901Dkvn1BJReQa7dA-19" value="" style="endArrow=none;dashed=1;html=1;dashPattern=1 3;strokeWidth=2;" edge="1" parent="1">
          <mxGeometry width="50" height="50" relative="1" as="geometry">
            <mxPoint x="1530" y="1161.1764705882354" as="sourcePoint" />
            <mxPoint x="1910" y="1161" as="targetPoint" />
          </mxGeometry>
        </mxCell>
        <mxCell id="hrX901Dkvn1BJReQa7dA-20" value="" style="endArrow=none;dashed=1;html=1;dashPattern=1 3;strokeWidth=2;exitX=0.472;exitY=-0.121;exitDx=0;exitDy=0;exitPerimeter=0;" edge="1" parent="1" source="hrX901Dkvn1BJReQa7dA-16">
          <mxGeometry width="50" height="50" relative="1" as="geometry">
            <mxPoint x="1540" y="1171.1764705882354" as="sourcePoint" />
            <mxPoint x="1897" y="1160" as="targetPoint" />
          </mxGeometry>
        </mxCell>
        <mxCell id="hrX901Dkvn1BJReQa7dA-21" value="" style="endArrow=classic;html=1;exitX=1.01;exitY=0.629;exitDx=0;exitDy=0;exitPerimeter=0;" edge="1" parent="1" source="77U4ROCLu0GC8vf01r3D-19">
          <mxGeometry width="50" height="50" relative="1" as="geometry">
            <mxPoint x="1580" y="792" as="sourcePoint" />
            <mxPoint x="1860" y="800" as="targetPoint" />
          </mxGeometry>
        </mxCell>
        <mxCell id="hrX901Dkvn1BJReQa7dA-22" value="" style="outlineConnect=0;dashed=0;verticalLabelPosition=bottom;verticalAlign=top;align=center;html=1;shape=mxgraph.aws3.rds_db_instance_standby_multi_az;fillColor=#2E73B8;gradientColor=none;" vertex="1" parent="1">
          <mxGeometry x="1860.25" y="756" width="49.5" height="66" as="geometry" />
        </mxCell>
        <mxCell id="hrX901Dkvn1BJReQa7dA-23" value="&lt;b&gt;&lt;font style=&quot;font-size: 14px&quot;&gt;File Storage&lt;/font&gt;&lt;/b&gt;" style="text;html=1;resizable=0;autosize=1;align=center;verticalAlign=middle;points=[];fillColor=none;strokeColor=none;rounded=0;" vertex="1" parent="1">
          <mxGeometry x="741" y="890" width="100" height="20" as="geometry" />
        </mxCell>
      </root>
    </mxGraphModel>
  </diagram>
</mxfile>
